<svg width="38" height="54" viewBox="0 0 38 54" fill="none" xmlns="http://www.w3.org/2000/svg">
<g id="cabezaTodo">
<g id="Cabeza">
<path id="Vector" d="M35.2279 14.875L34.5662 15.0859L28.1809 17.1523L27.1825 17.4727L27.7166 18.3828L34.3572 29.6641L35.1737 31.0469L35.8355 29.582C39.0977 22.3242 35.7 15.7656 35.553 15.4922L35.2279 14.875ZM34.8177 15.8867C34.8177 15.8867 38.2038 22.2695 35.077 29.2344L28.4325 17.9531L34.8177 15.8867Z" fill="white"/>
<path id="Vector_2" d="M25.1586 0L25.8126 1.51953C25.9171 1.76953 26.1183 2.52734 25.8204 3.07031C25.592 3.48828 25.0696 3.76953 24.2724 3.90625C23.87 3.97266 23.0728 4.01562 22.0589 4.07422C16.7495 4.36719 5.70113 4.98437 1.57203 11.1836C-0.262268 13.9336 -0.490588 17.4336 0.883201 21.5898C0.813544 22.2344 0.623922 24.3477 0.840633 26.4844C1.09217 28.9414 1.89322 31.3398 1.92805 31.4414L2.03254 31.75L2.32278 31.9102L7.46964 34.7109L8.34809 35.1914L8.65768 34.2344C8.71573 34.0508 10.1205 29.668 9.52065 25.6289C9.15302 23.1641 9.451 21.3516 10.3991 20.2383C11.2002 19.3008 12.5004 18.8242 14.2651 18.8242C16.0374 18.8242 17.7015 19.3164 18.3361 19.5234C19.6906 19.9766 23.2431 21.0234 26.8962 21.0234C32.9099 21.0234 36.3772 18.2773 36.9229 13.0781C37.9794 3.07031 26.8768 0.394531 26.7646 0.367188L25.1586 0ZM26.5788 1.19141C26.5788 1.19141 37.0854 3.60937 36.0947 12.9883C35.5027 18.6094 31.2923 20.1836 26.8962 20.1836C23.8274 20.1836 20.6696 19.4141 18.5954 18.7266C17.5467 18.375 15.9136 17.9844 14.2651 17.9844C11.0415 17.9844 7.76762 19.4844 8.69638 25.7539C9.27298 29.6445 7.86437 33.9727 7.86437 33.9727L2.7175 31.168C2.7175 31.168 1.91257 28.7891 1.66878 26.3984C1.42111 23.9531 1.73456 21.5 1.73456 21.5C-4.20562 4.08984 20.9599 5.31641 24.4079 4.73438C27.8559 4.15625 26.5788 1.19141 26.5788 1.19141Z" fill="white"/>
<g id="Vector_3">
<mask id="path-3-inside-1" fill="white">
<path d="M27.8094 17.7109L35.0228 15.3828L35.1853 15.6914C35.3285 15.957 38.6334 22.3359 35.4524 29.4102L35.1234 30.1406"/>
</mask>
<path d="M27.8094 17.7109L35.0228 15.3828L35.1853 15.6914C35.3285 15.957 38.6334 22.3359 35.4524 29.4102L35.1234 30.1406" fill="#D8A463"/>
<path d="M35.0228 15.3828L35.9076 14.9168L35.5158 14.1729L34.7157 14.4312L35.0228 15.3828ZM35.1853 15.6914L34.3005 16.1574L34.3051 16.1659L35.1853 15.6914ZM35.4524 29.4102L36.3642 29.8208L36.3644 29.8203L35.4524 29.4102ZM28.1166 18.6626L35.33 16.3345L34.7157 14.4312L27.5023 16.7593L28.1166 18.6626ZM34.138 15.8488L34.3006 16.1574L36.0701 15.2254L35.9076 14.9168L34.138 15.8488ZM34.3051 16.1659C34.4131 16.3662 37.5207 22.3719 34.5403 29L36.3644 29.8203C39.746 22.3 36.244 15.5479 36.0656 15.2169L34.3051 16.1659ZM34.5406 28.9996L34.2116 29.73L36.0352 30.5512L36.3642 29.8208L34.5406 28.9996Z" fill="black" mask="url(#path-3-inside-1)"/>
</g>
<path id="Vector_4" d="M36.1141 34.9251C35.3244 32.8931 34.9337 30.7143 34.5537 28.5957C34.4641 28.0962 34.3751 27.5999 34.2817 27.1098C33.7857 24.5096 33.1607 22.0448 31.7 19.9071C28.9646 15.9054 24.4726 13.4883 19.7796 13.4883C11.7097 13.4883 5.12883 20.3257 5.1099 28.8133L5.1099 28.8135L5.10989 28.8136L5.10989 28.8151L5.10989 28.8214L5.10986 28.8462L5.10977 28.9428L5.10942 29.3098L5.10826 30.6196C5.10736 31.7035 5.10627 33.1488 5.10554 34.594C5.10482 36.0393 5.10445 37.4844 5.105 38.5681C5.10527 39.1089 5.10577 39.5595 5.10656 39.875H5.1099V40.375C5.1099 44.7285 7.22647 47.7635 10.4633 49.7341C13.724 51.7192 18.1263 52.6211 22.6201 52.6211C28.2459 52.6211 33.144 50.6866 35.7886 45.2653L36.1141 34.9251ZM36.1141 34.9251C37.3404 38.34 37.3784 42.0033 35.7886 45.2652L36.1141 34.9251ZM5.10913 40.3513L5.10913 40.3512L5.10913 40.3513Z" fill="#EFC590" stroke="black"/>
<path id="Vector_5" d="M26.068 24.8828C24.2531 25.7968 24.137 27.9922 24.3111 29.7617C24.4272 30.9765 24.7136 32.6015 25.9906 33.3125C26.9465 33.8437 28.0494 34.4804 27.5657 35.6445C27.0394 36.8945 25.178 37.1679 23.8661 37.1328" stroke="black" stroke-width="0.784" stroke-miterlimit="10" stroke-linecap="round"/>
<g id="Vector_6">
<mask id="path-7-inside-2" fill="white">
<path d="M2.37692 31.4609L2.32274 31.3047C2.28791 31.207 1.50234 28.8516 1.25467 26.4414C1.03022 24.2227 1.25467 22.0352 1.30885 21.543C-0.0572011 17.4805 0.1479 14.0742 1.91641 11.418C5.93329 5.39062 16.8423 4.78516 22.0821 4.49219C23.1076 4.43359 23.9164 4.39062 24.3421 4.32031C25.2747 4.16406 25.9016 3.80859 26.1918 3.26172C26.6407 2.43359 26.2034 1.36719 26.1996 1.35547L25.8706 0.59375L26.6717 0.777344C26.78 0.804688 37.5265 3.39062 36.5127 13.0312C35.9864 17.9844 32.666 20.6016 26.8961 20.6016C23.3011 20.6016 19.8027 19.5703 18.4677 19.125C17.8137 18.9062 16.0993 18.4023 14.265 18.4023C12.3727 18.4023 10.9679 18.9297 10.0817 19.9648C9.05237 21.1719 8.72343 23.1016 9.11042 25.6914C9.69089 29.6328 8.32097 33.9219 8.26292 34.1016L8.10813 34.582"/>
</mask>
<path d="M2.37692 31.4609L2.32274 31.3047C2.28791 31.207 1.50234 28.8516 1.25467 26.4414C1.03022 24.2227 1.25467 22.0352 1.30885 21.543C-0.0572011 17.4805 0.1479 14.0742 1.91641 11.418C5.93329 5.39062 16.8423 4.78516 22.0821 4.49219C23.1076 4.43359 23.9164 4.39062 24.3421 4.32031C25.2747 4.16406 25.9016 3.80859 26.1918 3.26172C26.6407 2.43359 26.2034 1.36719 26.1996 1.35547L25.8706 0.59375L26.6717 0.777344C26.78 0.804688 37.5265 3.39062 36.5127 13.0312C35.9864 17.9844 32.666 20.6016 26.8961 20.6016C23.3011 20.6016 19.8027 19.5703 18.4677 19.125C17.8137 18.9062 16.0993 18.4023 14.265 18.4023C12.3727 18.4023 10.9679 18.9297 10.0817 19.9648C9.05237 21.1719 8.72343 23.1016 9.11042 25.6914C9.69089 29.6328 8.32097 33.9219 8.26292 34.1016L8.10813 34.582" fill="#B66C00"/>
<path d="M2.32274 31.3047L3.26759 30.9771L3.26463 30.9688L2.32274 31.3047ZM1.25467 26.4414L0.259747 26.5421L0.259909 26.5436L1.25467 26.4414ZM1.30885 21.543L2.30284 21.6524L2.32697 21.4332L2.2567 21.2242L1.30885 21.543ZM1.91641 11.418L1.08427 10.8634L1.08402 10.8638L1.91641 11.418ZM22.0821 4.49219L22.1379 5.49063L22.1391 5.49056L22.0821 4.49219ZM24.3421 4.32031L24.505 5.30695L24.5073 5.30657L24.3421 4.32031ZM26.1918 3.26172L25.3126 2.78514L25.3085 2.79293L26.1918 3.26172ZM26.1996 1.35547L27.1491 1.04192L27.1352 0.999773L27.1176 0.959021L26.1996 1.35547ZM25.8706 0.59375L26.094 -0.380977L24.17 -0.821938L24.9526 0.990197L25.8706 0.59375ZM26.6717 0.777344L26.9164 -0.192259L26.9058 -0.194938L26.8951 -0.197384L26.6717 0.777344ZM36.5127 13.0312L37.5071 13.1369L37.5072 13.1358L36.5127 13.0312ZM18.4677 19.125L18.1504 20.0734L18.1512 20.0736L18.4677 19.125ZM10.0817 19.9648L9.32209 19.3145L9.32086 19.316L10.0817 19.9648ZM9.11042 25.6914L10.0997 25.5457L10.0994 25.5436L9.11042 25.6914ZM8.26292 34.1016L7.31135 33.7942L7.3111 33.7949L8.26292 34.1016ZM3.32174 31.1333L3.26756 30.9771L1.37793 31.6323L1.4321 31.7885L3.32174 31.1333ZM3.26463 30.9688C3.26582 30.9721 3.25373 30.9371 3.22876 30.8597C3.20525 30.7868 3.17253 30.683 3.13309 30.5528C3.05417 30.2921 2.94892 29.927 2.8371 29.4915C2.61227 28.616 2.36635 27.4769 2.24943 26.3392L0.259909 26.5436C0.519259 29.0675 1.33367 31.5083 1.38085 31.6406L3.26463 30.9688ZM2.24959 26.3408C2.03614 24.2307 2.25039 22.129 2.30284 21.6524L0.314852 21.4336C0.258954 21.9414 0.0243021 24.2146 0.259748 26.5421L2.24959 26.3408ZM2.2567 21.2242C0.952938 17.347 1.20622 14.2891 2.7488 11.9722L1.08402 10.8638C-0.910419 13.8594 -1.06734 17.6139 0.361 21.8617L2.2567 21.2242ZM2.74855 11.9725C4.54173 9.28186 7.95867 7.70177 11.7762 6.77655C15.5597 5.85959 19.51 5.63756 22.1379 5.49063L22.0262 3.49375C19.4144 3.63978 15.2903 3.86697 11.3051 4.83282C7.35398 5.79042 3.30797 7.52674 1.08427 10.8634L2.74855 11.9725ZM22.1391 5.49056C23.1257 5.43419 24.0112 5.38852 24.505 5.30694L24.1791 3.33368C23.8216 3.39273 23.0895 3.433 22.025 3.49382L22.1391 5.49056ZM24.5073 5.30657C25.5755 5.1276 26.5734 4.67584 27.0751 3.73051L25.3085 2.79293C25.2297 2.94135 24.9738 3.20053 24.1768 3.33406L24.5073 5.30657ZM27.071 3.73827C27.4425 3.05284 27.4229 2.32796 27.3552 1.85943C27.2855 1.377 27.1346 0.997903 27.1491 1.04192L25.25 1.66901C25.2684 1.72475 25.3381 1.88472 25.3758 2.14546C25.4154 2.42009 25.39 2.64247 25.3127 2.78516L27.071 3.73827ZM27.1176 0.959021L26.7887 0.197303L24.9526 0.990197L25.2815 1.75192L27.1176 0.959021ZM25.6472 1.56848L26.4483 1.75207L26.8951 -0.197384L26.094 -0.380977L25.6472 1.56848ZM26.427 1.74695C26.4508 1.75296 29.0131 2.36965 31.4283 4.11054C33.812 5.82877 35.9761 8.57182 35.5181 12.9267L37.5072 13.1358C38.0631 7.85006 35.3609 4.47983 32.5978 2.4881C31.2247 1.49839 29.8234 0.834996 28.7644 0.417514C28.233 0.208038 27.7829 0.0585753 27.4589 -0.040211C27.2968 -0.0896455 27.1659 -0.126482 27.0719 -0.151866C27.0249 -0.164565 26.9872 -0.174374 26.9595 -0.181436C26.9394 -0.186556 26.9049 -0.195155 26.9164 -0.192259L26.427 1.74695ZM35.5182 12.9256C35.2776 15.1902 34.4169 16.8134 33.0521 17.8882C31.6679 18.9782 29.6412 19.6016 26.8961 19.6016V21.6016C29.9209 21.6016 32.4394 20.9163 34.2894 19.4595C36.1589 17.9873 37.2214 15.8254 37.5071 13.1369L35.5182 12.9256ZM26.8961 19.6016C23.4622 19.6016 20.0849 18.6103 18.7841 18.1764L18.1512 20.0736C19.5206 20.5304 23.1399 21.6016 26.8961 21.6016V19.6016ZM18.7849 18.1766C18.091 17.9445 16.2576 17.4023 14.265 17.4023V19.4023C15.9411 19.4023 17.5363 19.868 18.1504 20.0734L18.7849 18.1766ZM14.265 17.4023C12.1969 17.4023 10.4628 17.9821 9.32209 19.3145L10.8414 20.6152C11.4731 19.8773 12.5484 19.4023 14.265 19.4023V17.4023ZM9.32086 19.316C8.01159 20.8512 7.71849 23.1428 8.1214 25.8392L10.0994 25.5436C9.72838 23.0603 10.0932 21.4926 10.8426 20.6137L9.32086 19.316ZM8.12109 25.8371C8.66475 29.5285 7.36716 33.6214 7.31135 33.7942L9.2145 34.409C9.27478 34.2224 10.717 29.7371 10.0997 25.5457L8.12109 25.8371ZM7.3111 33.7949L7.15631 34.2754L9.05995 34.8887L9.21475 34.4082L7.3111 33.7949Z" fill="black" mask="url(#path-7-inside-2)"/>
</g>
<path id="Vector_7" d="M3.05324 35.5646L3.05268 35.5644C2.23177 35.2926 1.7629 34.7749 1.54689 34.1306C1.32378 33.4652 1.35761 32.6198 1.65274 31.7134C1.94784 30.8071 2.41784 30.1081 2.98715 29.7079C3.53762 29.3209 4.21717 29.1854 5.03591 29.4586L5.03677 29.4589C5.89241 29.7428 6.87481 30.4643 7.56476 31.353C8.2652 32.2552 8.56642 33.195 8.32548 33.935C8.0851 34.6733 7.29165 35.248 6.19809 35.5542C5.12078 35.8558 3.90654 35.8482 3.05324 35.5646Z" fill="#EFC590" stroke="url(#paint0_linear)"/>
<path id="Vector_8" d="M5.31027 33.8555L4.31959 34.3555L2.83358 33.8554C2.45559 33.5193 2.66817 32.2151 2.83358 31.572C2.99901 30.9288 4.08646 30.3713 4.31961 30.3555C4.55417 30.3434 5.11938 30.6881 5.31027 30.8555L5.80561 31.8555" stroke="black" stroke-width="0.75" stroke-miterlimit="10"/>
</g>
<g id="Cejas">
<path id="Vector_9" d="M25.7159 25.668C25.7159 25.668 27.9875 23.0664 31.8534 25.0313" stroke="#794800" stroke-width="1.681" stroke-miterlimit="10" stroke-linecap="round"/>
<path id="Vector_10" d="M19.4429 25.6719C19.4429 25.6719 16.6179 23.3047 13.2937 26.3203" stroke="#794800" stroke-width="1.681" stroke-miterlimit="10" stroke-linecap="round"/>
</g>
<g id="Gafas">
<path id="Vector_11" d="M22.0016 29.5742C22.1353 32.3748 19.9929 34.7557 17.2185 34.8907C14.4441 35.0257 12.0852 32.867 11.9515 30.0665C11.8178 27.262 13.9564 24.881 16.7308 24.746C19.5091 24.6111 21.8639 26.7736 22.0016 29.5742Z" stroke="#482C82" stroke-width="0.75" stroke-miterlimit="10"/>
<path id="Vector_12" d="M36.0678 28.8873C36.2054 31.688 34.0629 34.0688 31.2885 34.2039C28.5141 34.3389 26.1554 32.1763 26.0216 29.3758C25.884 26.5751 28.0265 24.1942 30.8009 24.0592C33.5753 23.9241 35.9341 26.0828 36.0678 28.8873Z" stroke="#482C82" stroke-width="0.75" stroke-miterlimit="10"/>
<path id="Vector_13" d="M22.0015 29.5742L26.0216 29.3758" stroke="#482C82" stroke-width="0.75" stroke-miterlimit="10"/>
</g>
<g id="Barbilla">
<path id="Vector_14" d="M29.3107 42.6361C29.3107 42.6361 27.7429 43.9262 24.667 44.048C21.591 44.1698 20.0143 43.0042 20.0143 43.0042" stroke="black" stroke-width="0.784" stroke-miterlimit="10" stroke-linecap="round"/>
</g>
<g id="Barbilla_2">
<path id="Vector_15" d="M15.0215 30.6474C15.0215 30.6474 15.6379 30.1351 16.8518 30.081C18.0657 30.0269 18.6904 30.4839 18.6904 30.4839" stroke="black" stroke-width="0.784" stroke-miterlimit="10" stroke-linecap="round"/>
</g>
<g id="Barbilla_3">
<path id="Vector_16" d="M28.0215 29.6474C28.0215 29.6474 28.6379 29.1351 29.8518 29.081C31.0657 29.0269 31.6904 29.4839 31.6904 29.4839" stroke="black" stroke-width="0.784" stroke-miterlimit="10" stroke-linecap="round"/>
</g>
</g>
<defs>
<linearGradient id="paint0_linear" x1="-0.138438" y1="32" x2="6.81091" y2="34.4588" gradientUnits="userSpaceOnUse">
<stop/>
<stop offset="0.515625" stop-opacity="0.484375"/>
<stop offset="0.9999" stop-opacity="0"/>
<stop offset="1" stop-opacity="0"/>
</linearGradient>
</defs>
</svg>
